<svg xmlns="http://www.w3.org/2000/svg" viewBox="0 0 80 80">
  <defs><filter id="s" x="-20%" y="-20%" width="150%" height="160%"><feDropShadow dx="2.5" dy="3" stdDeviation="1" flood-color="#3c2935" flood-opacity=".2"/></filter></defs>
  <path d="M11 14Q17 6 28 10Q38 3 48 9Q61 7 67 17Q75 25 69 36Q74 48 66 57Q59 68 47 66Q36 74 26 67Q13 67 10 55Q3 46 9 36Q4 25 11 14Z" fill="#fffaf2" filter="url(#s)"/>
  <path d="M14 39Q14 19 35 15Q55 11 65 28Q70 37 62 42Q58 45 50 42Q44 40 42 46Q39 56 29 58Q17 58 14 39Z" fill="#ff9fc8" stroke="#3c2935" stroke-width="2.4"/>
  <circle cx="27" cy="28" r="4" fill="#ff8752" stroke="#3c2935" stroke-width="1.4"/><circle cx="40" cy="23" r="4" fill="#ffe55f" stroke="#3c2935" stroke-width="1.4"/><circle cx="53" cy="28" r="4" fill="#8eb8ff" stroke="#3c2935" stroke-width="1.4"/>
  <path d="M54 55L67 18L62 16L47 52Z" fill="#bdeb62" stroke="#3c2935" stroke-width="2" stroke-linejoin="round"/><path d="M47 52q1 9-7 12q9 2 14-6Z" fill="#7d4169" stroke="#3c2935" stroke-width="1.6"/>
</svg>
