<svg xmlns="http://www.w3.org/2000/svg" viewBox="0 0 80 80">
  <defs><filter id="s" x="-20%" y="-20%" width="150%" height="160%"><feDropShadow dx="2" dy="3" stdDeviation="1" flood-color="#3c2935" flood-opacity=".2"/></filter></defs>
  <path d="M12 13Q19 5 30 10Q40 3 51 9Q64 8 69 19Q75 29 69 40Q74 51 65 60Q56 69 45 66Q34 73 23 65Q11 65 9 53Q3 44 9 33Q4 23 12 13Z" fill="#fffaf2" filter="url(#s)"/>
  <path d="M40 18c7-12 19-7 18 3 10-2 17 10 7 17 11 6 5 20-6 19 0 11-14 16-20 6-7 9-20 3-19-8-11 1-16-13-6-19-9-8 0-19 12-17 1-10 15-14 14-1Z" fill="#ff8752" stroke="#3c2935" stroke-width="2.4"/>
  <rect x="30" y="29" width="20" height="20" rx="4" fill="#fffaf2" stroke="#3c2935" stroke-width="1.8"/><path d="M40 29v20M30 39h20" stroke="#3c2935" stroke-width="1.5"/>
  <circle cx="40" cy="39" r="3" fill="#ffe55f" stroke="#3c2935" stroke-width="1.2"/>
</svg>
